<svg
  className="inline-block box-shadow-lg z-2222 mr-2 w-5 h-5"
  viewBox="0 0 533.5 544.3"
  xmlns="http://www.w3.org/2000/svg"
>
  <path
    d="M533.5 278.4c0-17.4-1.6-34-4.7-50.2H272v95h146.9c-6.3 34.4-25 63.5-53.4 83.1v68h86.2c50.4-46.5 81.8-115.1 81.8-195.9z"
    fill="#4285f4"
  />
  <path
    d="M272 544.3c72.6 0 133.6-24 178.2-65.4l-86.2-68c-24 16.1-54.7 25.7-92 25.7-70.7 0-130.7-47.8-152.1-112.1H32.2v70.5c44.5 87.9 136.5 149.3 239.8 149.3z"
    fill="#34a853"
  />
  <path
    d="M119.9 324.5c-10.9-32.5-10.9-67 0-99.5V154.5H32.2a272 272 0 000 235.3l87.7-65.3z"
    fill="#fbbc04"
  />
  <path
    d="M272 107.7c39.5 0 75 13.6 102.9 40.4l77.4-77.4C405.6 24 344.6 0 272 0c-103.3 0-195.3 61.4-239.8 149.3l87.7 70.5C141.3 155.5 201.3 107.7 272 107.7z"
    fill="#ea4335"
  />
</svg>
